<svg xmlns="http://www.w3.org/2000/svg" xmlns:xlink="http://www.w3.org/1999/xlink" version="1.1" x="0px" y="0px" viewBox="0 0 32 32" enable-background="new 0 0 32 32" xml:space="preserve"><path fill-rule="evenodd" clip-rule="evenodd" d="M29.704,16.697l-9.286,9.02c-0.396,0.385-1.034,0.385-1.429,0l-0.714-0.693  c-0.395-0.384-0.395-1.006,0-1.389l7.856-7.632l-7.856-7.631c-0.395-0.383-0.395-1.004,0-1.388l0.714-0.695  c0.395-0.383,1.033-0.383,1.429,0l9.286,9.021C30.099,15.692,30.099,16.314,29.704,16.697L29.704,16.697z M21.689,16.679  l-9.022,9.038c-0.38,0.381-0.999,0.383-1.378,0.002l-9.004-9.02c-0.379-0.379-0.379-0.998,0.002-1.381l9.022-9.037  c0.382-0.381,0.998-0.381,1.378,0l9.002,9.017C22.071,15.679,22.069,16.297,21.689,16.679L21.689,16.679z M11.993,10.058  l-5.937,5.948l5.926,5.936l5.938-5.949L11.993,10.058L11.993,10.058z"></path></svg>